<svg xmlns="http://www.w3.org/2000/svg" viewBox="0 0 512 512">
  <defs>
    <linearGradient id="glass" x1="0" y1="0" x2="1" y2="1">
      <stop offset="0%" stop-color="#dff5ff"/>
      <stop offset="100%" stop-color="#a5dff8"/>
    </linearGradient>
  </defs>
  <rect x="24" y="24" width="464" height="464" rx="96" fill="#0f172a"/>
  <circle cx="410" cy="100" r="90" fill="#7dd3fc" opacity="0.10"/>
  <circle cx="90" cy="430" r="90" fill="#fbbf24" opacity="0.08"/>
  <polygon points="176,122 256,72 336,122" fill="#fbbf24"/>
  <rect x="196" y="116" width="120" height="20" rx="10" fill="#fbbf24"/>
  <rect x="136" y="130" width="240" height="252" rx="34" fill="#e5eef8"/>
  <rect x="154" y="148" width="204" height="216" rx="22" fill="#d9ebf5"/>
  <rect x="166" y="160" width="82" height="88" rx="12" fill="url(#glass)"/>
  <rect x="264" y="160" width="82" height="88" rx="12" fill="url(#glass)"/>
  <rect x="166" y="264" width="82" height="88" rx="12" fill="url(#glass)"/>
  <rect x="264" y="264" width="82" height="88" rx="12" fill="url(#glass)"/>
  <rect x="248" y="156" width="16" height="200" rx="8" fill="#e5eef8"/>
  <rect x="160" y="248" width="192" height="16" rx="8" fill="#e5eef8"/>
  <polygon points="382,136 392,162 418,172 392,182 382,208 372,182 346,172 372,162" fill="#ffffff" opacity="0.85"/>
</svg>